# xmcd
#
# Track frame offsets:
#	150
#	15628
#	31618
#	53669
#	78387
#	94467
#	109814
#	127737
#	144244
#	163231
#	178603
#	196532
#	213507
#	229623
#	245951
#	265166
#	284180
#	298440
#	317830
#	335322
#
# Disc length: 4673 seconds
#
# Revision: 0
# Processed by: cddbd v1.5.1PL2 Copyright (c) Steve Scherf et al.
# Submitted via: dBpowerAMP V4.0
#
DISCID=26123f14
DTITLE=BRAVO - Black hits - best of vol.1 [CD1)
DYEAR=1900
DGENRE=
TTITLE0=Numb encore - Jay-z, Linkin park
TTITLE1=Candy shop - 50 Cent feat, Olivia
TTITLE2=Like to soldiers - Eminem
TTITLE3=Soldier - Destiny´s child feat, T.I and Lil Wayne
TTITLE4=Crazy - K-Maro
TTITLE5=It´s like that - Mariah Carey feat, Fatman Scoop
TTITLE6=How we do - Game FT, 50 Cent
TTITLE7=My music - Sistars
TTITLE8=New York - Ja Rule
TTITLE9=1,2 step - Ciara feat, Missy Elliott
TTITLE10=Rich girl - Gwen Stefani feat, Eve
TTITLE11=Caught up - Usher
TTITLE12=Hush - LL Cool J feat, 7 Aurelius
TTITLE13=In the kitchen - R.Kelly
TTITLE14=Itoxication - Gentleman
TTITLE15=Love me - Janet Jackson
TTITLE16=Only you - Ashanti
TTITLE17=Drop ly like it´s hot - Snoop Dogg feat, Pharrell
TTITLE18=Hold you down - Jennifer Lopez feat, Fat Joe
TTITLE19=Over and over - Nelly feat, Tim McGraw
EXTD=
EXTT0=
EXTT1=
EXTT2=
EXTT3=
EXTT4=
EXTT5=
EXTT6=
EXTT7=
EXTT8=
EXTT9=
EXTT10=
EXTT11=
EXTT12=
EXTT13=
EXTT14=
EXTT15=
EXTT16=
EXTT17=
EXTT18=
EXTT19=
PLAYORDER=
